<?xml version="1.0" standalone="no"?>
<!DOCTYPE svg PUBLIC "-//W3C//DTD SVG 20010904//EN"
 "http://www.w3.org/TR/2001/REC-SVG-20010904/DTD/svg10.dtd">
<svg version="1.0" xmlns="http://www.w3.org/2000/svg"
 width="96.000000pt" height="96.000000pt" viewBox="0 0 96.000000 96.000000"
 preserveAspectRatio="xMidYMid meet">

<g transform="translate(0.000000,96.000000) scale(0.100000,-0.100000)"
fill="#000000" stroke="none">
<path d="M469 942 c-13 -11 -38 -27 -56 -36 -28 -14 -31 -19 -24 -39 8 -21 5
-25 -41 -41 -50 -17 -50 -17 -74 4 -15 15 -24 36 -26 63 -2 22 -8 42 -15 44
-20 7 -52 -38 -73 -103 -26 -83 -25 -116 5 -152 24 -29 25 -31 14 -113 -13
-102 1 -245 35 -372 12 -48 20 -87 16 -87 -13 0 -60 53 -60 67 0 16 -31 14
-37 -3 -7 -21 43 -78 91 -102 74 -37 219 -62 369 -65 112 -2 132 0 132 13 0
10 -12 16 -36 18 l-36 3 -6 94 c-6 108 5 155 38 155 34 0 65 28 65 60 0 22 13
41 56 82 31 29 60 61 66 72 16 31 11 94 -11 132 -12 19 -21 43 -21 53 0 27
-30 48 -85 59 -47 10 -74 8 -140 -13 -27 -8 -69 46 -60 76 4 12 -1 31 -12 47
-10 15 -20 42 -23 61 -6 42 -19 48 -51 23z m38 -99 c12 -19 11 -20 -20 -9 -62
22 -72 36 -35 53 18 8 25 6 33 -7 5 -10 15 -27 22 -37z m-237 -78 c0 -22 22
-29 35 -12 15 21 93 56 123 57 48 0 122 -59 122 -98 0 -13 -3 -12 -20 3 -25
22 -52 13 -48 -17 2 -14 14 -26 31 -32 22 -8 38 -5 83 17 61 30 76 31 44 2
-39 -35 -19 -92 49 -136 24 -15 24 -17 11 -49 -31 -74 -109 -131 -159 -115
-12 3 -26 25 -36 53 -31 86 -34 92 -54 92 -11 0 -23 -4 -26 -10 -12 -19 -25
-10 -40 26 -15 36 -35 38 -35 4 0 -52 38 -88 79 -75 16 5 22 -3 35 -43 9 -28
26 -58 37 -68 27 -25 86 -23 139 5 44 23 70 17 70 -16 0 -19 -27 -28 -43 -14
-18 14 -37 -5 -37 -36 0 -13 -12 -35 -26 -50 -21 -21 -32 -24 -62 -20 -48 8
-98 61 -113 122 -9 34 -16 45 -28 43 -21 -4 -17 -48 11 -106 27 -58 86 -96
147 -97 l46 0 7 -50 c3 -27 7 -63 7 -79 l1 -28 -87 7 c-96 7 -233 32 -246 44
-4 4 -21 61 -39 127 -27 104 -31 137 -32 257 -1 121 1 140 17 151 24 19 21 32
-14 56 -44 32 -51 58 -32 119 l17 50 33 -35 c18 -20 33 -42 33 -49z m574 -191
c5 -17 0 -36 -14 -57 -38 -60 -111 -119 -117 -95 -4 19 43 108 63 118 12 7 28
23 35 36 16 31 25 30 33 -2z"/>
<path d="M359 741 c-21 -22 -29 -38 -27 -56 4 -37 20 -35 39 5 10 21 26 37 40
40 30 7 31 34 1 38 -14 2 -33 -7 -53 -27z"/>
<path d="M392 697 c-9 -10 -9 -18 1 -31 17 -23 49 -11 45 18 -4 25 -30 32 -46
13z"/>
</g>
</svg>
